<svg width="675" height="253" viewBox="0 0 675 253" fill="none" xmlns="http://www.w3.org/2000/svg">
<path fill-rule="evenodd" clip-rule="evenodd" d="M207.119 67.9425H174.247V55.5172C174.247 24.8506 149.328 0 119.107 0C88.8863 0 63.9674 24.8506 63.9674 55.5172V67.9425H31.0956C26.589 67.9425 23.1428 71.3793 23.1428 75.8736L0 232.644C0 244.011 9.01322 253 20.4123 253H213.643C225.042 253 234.056 244.011 234.056 232.644L214.806 75.6092C215.071 71.3793 211.625 67.9425 207.119 67.9425ZM79.8731 54.9885C79.8731 33.046 97.3693 15.3333 119.107 15.3333C140.845 15.3333 158.341 33.046 158.341 54.9885V67.4138H79.8731V54.9885ZM62.7589 180.417C63.0758 179.619 63.25 178.75 63.25 177.839C63.25 173.983 60.124 170.857 56.2679 170.857C52.4117 170.857 49.2857 173.983 49.2857 177.839C49.2857 180.72 51.0299 183.193 53.5197 184.26C62.8336 204.722 84.7761 221.425 109.445 224.882C134.954 228.457 162.851 217.841 182.815 184.356C185.43 183.348 187.286 180.81 187.286 177.839C187.286 173.983 184.16 170.857 180.304 170.857C176.447 170.857 173.321 173.983 173.321 177.839C173.321 178.634 173.454 179.398 173.699 180.11C155.68 209.724 131.815 217.919 110.832 214.979C89.5428 211.995 70.6848 197.517 62.7589 180.417ZM99.8392 155H87.3792V115.03H80.4492V103.9H99.8392V155ZM158.288 155H143.658L127.138 133.3V155H115.168V105.86H127.138V127.42L143.518 105.86H157.588L138.548 129.94L158.288 155Z" fill="url(#paint0_linear)"/>
<path d="M340.9 140H361.8L333.6 104.2L360.8 69.8H340.7L317.3 100.6V69.8H300.2V140H317.3V109L340.9 140ZM370.427 140H387.527V84.2H370.427V140ZM379.027 78.4C385.027 78.4 389.127 74.3 389.127 69.2C389.127 64 385.027 59.9 379.027 59.9C372.927 59.9 368.827 64 368.827 69.2C368.827 74.3 372.927 78.4 379.027 78.4ZM417.519 114.1C417.519 104.5 422.219 101.7 430.319 101.7H435.019V83.6C427.519 83.6 421.419 87.6 417.519 93.5V84.2H400.419V140H417.519V114.1ZM440.292 112C440.292 129.6 451.192 140.8 464.792 140.8C473.092 140.8 478.992 137 482.092 132.1V140H499.192V84.2H482.092V92.1C479.092 87.2 473.192 83.4 464.892 83.4C451.192 83.4 440.292 94.4 440.292 112ZM482.092 112.1C482.092 121 476.392 125.9 469.892 125.9C463.492 125.9 457.692 120.9 457.692 112C457.692 103.1 463.492 98.3 469.892 98.3C476.392 98.3 482.092 103.2 482.092 112.1ZM550.563 140H567.563V107.4C567.563 92.4 558.963 83.6 546.063 83.6C538.563 83.6 532.563 86.9 529.163 91.6V84.2H512.063V140H529.163V109.7C529.163 102.1 533.363 97.9 539.863 97.9C546.363 97.9 550.563 102.1 550.563 109.7V140ZM576.546 112C576.546 129.6 587.446 140.8 601.046 140.8C609.346 140.8 615.246 137 618.346 132.1V140H635.446V84.2H618.346V92.1C615.346 87.2 609.446 83.4 601.146 83.4C587.446 83.4 576.546 94.4 576.546 112ZM618.346 112.1C618.346 121 612.646 125.9 606.146 125.9C599.746 125.9 593.946 120.9 593.946 112C593.946 103.1 599.746 98.3 606.146 98.3C612.646 98.3 618.346 103.2 618.346 112.1ZM338.9 222.6C338.9 227.6 335.6 230.2 329.9 230.2H317.3V214.7H329.7C335.4 214.7 338.9 217.6 338.9 222.6ZM337.2 194.9C337.2 199.7 334.1 202.2 328.5 202.2H317.3V187.5H328.5C334.1 187.5 337.2 190.1 337.2 194.9ZM356.2 224.9C356.2 216.9 350.9 209.7 342.7 208C349.5 206 354.6 200.5 354.6 192C354.6 180.9 346.1 173.8 331.8 173.8H300.2V244H332.9C347.7 244 356.2 236.5 356.2 224.9ZM363.218 216C363.218 233.6 374.118 244.8 387.718 244.8C396.018 244.8 401.918 241 405.018 236.1V244H422.118V188.2H405.018V196.1C402.018 191.2 396.118 187.4 387.818 187.4C374.118 187.4 363.218 198.4 363.218 216ZM405.018 216.1C405.018 225 399.318 229.9 392.818 229.9C386.418 229.9 380.618 224.9 380.618 216C380.618 207.1 386.418 202.3 392.818 202.3C399.318 202.3 405.018 207.2 405.018 216.1ZM474.689 188.2H432.089V202.3H455.089L431.889 230.4V244H475.189V229.9H450.989L474.689 201.8V188.2ZM481.698 216C481.698 233.6 492.598 244.8 506.198 244.8C514.498 244.8 520.398 241 523.498 236.1V244H540.598V188.2H523.498V196.1C520.498 191.2 514.598 187.4 506.298 187.4C492.598 187.4 481.698 198.4 481.698 216ZM523.498 216.1C523.498 225 517.798 229.9 511.298 229.9C504.898 229.9 499.098 224.9 499.098 216C499.098 207.1 504.898 202.3 511.298 202.3C517.798 202.3 523.498 207.2 523.498 216.1ZM550.07 216C550.07 233.6 560.97 244.8 574.57 244.8C582.87 244.8 588.77 241 591.87 236.1V244H608.97V188.2H591.87V196.1C588.87 191.2 582.97 187.4 574.67 187.4C560.97 187.4 550.07 198.4 550.07 216ZM591.87 216.1C591.87 225 586.17 229.9 579.67 229.9C573.27 229.9 567.47 224.9 567.47 216C567.47 207.1 573.27 202.3 579.67 202.3C586.17 202.3 591.87 207.2 591.87 216.1ZM638.941 218.1C638.941 208.5 643.641 205.7 651.741 205.7H656.441V187.6C648.941 187.6 642.841 191.6 638.941 197.5V188.2H621.841V244H638.941V218.1Z" fill="url(#paint1_linear)"/>
<defs>
<linearGradient id="paint0_linear" x1="0" y1="0" x2="234" y2="253" gradientUnits="userSpaceOnUse">
<stop stop-color="#FFA301" stop-opacity="0.994792"/>
<stop offset="1" stop-color="#F17417"/>
</linearGradient>
<linearGradient id="paint1_linear" x1="294.312" y1="53" x2="597.852" y2="161.876" gradientUnits="userSpaceOnUse">
<stop stop-color="#FFA301"/>
<stop offset="1" stop-color="#F17417"/>
</linearGradient>
</defs>
</svg>
